<svg width="98" height="52" viewBox="0 0 98 52" xmlns="http://www.w3.org/2000/svg" xmlns:xlink="http://www.w3.org/1999/xlink">
  <title>
    Vector Logo Dark
  </title>
  <desc>
    Created using Figma
  </desc>
  <g fill="#555">
    <use xlink:href="#a"/>
    <use xlink:href="#b"/>
    <use xlink:href="#c"/>
    <use xlink:href="#d"/>
  </g>
  <g transform="translate(.758 28.75)" fill="#FEA600">
    <use xlink:href="#e"/>
    <use xlink:href="#f"/>
    <use xlink:href="#g"/>
    <use xlink:href="#h"/>
    <use xlink:href="#i"/>
  </g>
  <use xlink:href="#j" transform="translate(68.76 2.796)" fill="#FEA600"/>
  <use xlink:href="#k" transform="rotate(-5.083 548.135 -810.996) skewX(-.163)" fill="#FEA600"/>
  <defs>
    <path id="a" d="M15.58 15.94c0 .96-.1 1.96-.34 3-.2 1.06-.6 2.03-1.18 2.92-.56.86-1.35 1.58-2.38 2.15-1 .58-2.33.87-3.94.87-2.02 0-3.7-.53-5.05-1.58C1.34 22.2.44 20.84 0 19.2l5.08-1.76c.16.64.44 1.16.84 1.54.43.4.94.58 1.55.58.94 0 1.56-.33 1.85-1 .3-.65.47-1.5.47-2.6V0h5.78v15.94z"/>
    <path id="b" d="M31.1 24.22v-2.36h-.07c-.2.38-.47.75-.8 1.1-.32.33-.7.63-1.15.88-.42.25-.9.46-1.45.62-.5.16-1.06.24-1.64.24-1.14 0-2.1-.2-2.87-.62-.77-.4-1.4-.93-1.9-1.57-.46-.65-.8-1.4-1.03-2.22-.2-.84-.3-1.7-.3-2.56V7.18h5.55v9.24c0 .48.03.93.1 1.37.07.42.2.8.37 1.15.2.34.46.6.77.82.3.18.72.27 1.24.27.96 0 1.7-.36 2.18-1.1.52-.72.78-1.58.78-2.56v-9.2h5.52v17.04H31.1z"/>
    <path id="c" d="M50.6 12.2c-.46-.42-.98-.8-1.6-1.08-.6-.3-1.24-.45-1.9-.45-.52 0-1 .1-1.46.3-.42.2-.63.57-.63 1.07 0 .48.24.82.7 1.03.5.2 1.3.43 2.37.68.63.14 1.25.33 1.88.58.65.25 1.24.58 1.75 1 .52.4.93.9 1.25 1.5.3.6.47 1.3.47 2.12 0 1.07-.22 1.98-.64 2.74-.43.72-1 1.3-1.68 1.76-.68.46-1.44.8-2.3 1-.84.2-1.7.3-2.55.3-1.37 0-2.7-.2-4.04-.65-1.3-.44-2.38-1.1-3.25-1.97l3.1-3.32c.5.56 1.1 1.02 1.8 1.38.73.37 1.5.55 2.3.55.45 0 .9-.1 1.3-.3.46-.24.68-.63.68-1.17 0-.53-.26-.92-.8-1.17-.54-.26-1.38-.52-2.53-.8-.58-.13-1.16-.3-1.75-.54-.58-.23-1.1-.54-1.58-.92-.45-.4-.82-.87-1.1-1.44-.3-.57-.45-1.25-.45-2.05 0-1.03.22-1.9.64-2.6.43-.73.98-1.32 1.65-1.78.7-.46 1.43-.8 2.23-1 .83-.22 1.65-.33 2.46-.33 1.25 0 2.47.2 3.66.6 1.2.4 2.23 1 3.06 1.8L50.6 12.2z"/>
    <path id="d" d="M62.6 11.4v6.5c0 .8.14 1.4.43 1.8.3.4.86.58 1.65.58.27 0 .55-.02.84-.07.3-.03.57-.1.77-.2l.06 4.1c-.38.15-.86.26-1.45.36-.57.1-1.15.17-1.74.17-1.12 0-2.06-.14-2.82-.4-.76-.3-1.38-.72-1.85-1.24-.46-.56-.8-1.2-1-1.93-.2-.75-.3-1.58-.3-2.5V11.4h-2.68V7.17h2.66V2.7h5.4v4.48h3.95v4.2H62.6z"/>
    <path id="e" d="M7.2 14.05L4.3 8.63H3.2v5.44H0V.36h5.13c.65 0 1.28.08 1.9.22.6.13 1.16.35 1.64.68.5.32.9.74 1.18 1.27.3.53.44 1.2.44 1.97 0 .93-.26 1.7-.75 2.34-.5.64-1.18 1.1-2.06 1.36l3.5 5.86H7.2zm-.13-9.5c0-.3-.06-.57-.2-.76-.13-.22-.3-.37-.52-.47-.2-.12-.44-.2-.7-.24-.26-.05-.5-.06-.74-.06H3.2v3.2h1.54c.26 0 .54-.03.8-.07.3-.05.55-.14.78-.25.22-.12.4-.3.55-.5.15-.23.22-.5.22-.86z"/>
    <path id="f" d="M29.12 7.15c0 1.1-.2 2.08-.55 2.98-.37.9-.88 1.66-1.54 2.3-.65.63-1.42 1.12-2.32 1.47-.9.35-1.87.52-2.92.52-1.05 0-2.03-.17-2.93-.52-.9-.35-1.66-.84-2.32-1.47-.65-.64-1.16-1.4-1.52-2.3-.36-.9-.54-1.9-.54-2.98 0-1.1.18-2.08.55-2.95.37-.9.88-1.65 1.53-2.27.66-.62 1.43-1.1 2.32-1.43.9-.33 1.88-.5 2.93-.5 1.05 0 2.03.17 2.93.5.9.34 1.68.8 2.33 1.43.66.62 1.17 1.38 1.54 2.27.36.87.55 1.86.55 2.95zm-3.48 0c0-.6-.1-1.14-.3-1.66-.18-.52-.44-.96-.8-1.32-.32-.38-.72-.67-1.2-.87-.47-.2-1-.32-1.56-.32-.57 0-1.1.1-1.56.33-.47.2-.88.5-1.22.88-.34.36-.6.8-.8 1.3-.18.53-.26 1.08-.26 1.67 0 .62.1 1.2.28 1.72.2.52.45.96.78 1.34.34.38.75.68 1.22.9.47.2 1 .3 1.56.3.57 0 1.1-.1 1.56-.3.47-.22.87-.52 1.2-.9.36-.37.62-.8.8-1.33.2-.52.3-1.1.3-1.72z"/>
    <path id="g" d="M45.58 12.16c-.6.7-1.33 1.25-2.2 1.66-.88.4-1.9.6-3.03.6-1.04 0-2-.17-2.9-.52-.87-.35-1.63-.84-2.27-1.47-.65-.64-1.16-1.4-1.52-2.3-.37-.9-.56-1.87-.56-2.94 0-1.1.2-2.1.56-3 .38-.87.9-1.63 1.56-2.25.65-.63 1.43-1.1 2.32-1.45.88-.33 1.84-.5 2.87-.5.96 0 1.9.17 2.8.52.93.34 1.68.83 2.25 1.5l-2.2 2.23c-.3-.42-.7-.74-1.2-.94-.5-.2-1-.3-1.53-.3-.57 0-1.1.1-1.58.33-.47.2-.87.5-1.2.87-.36.37-.62.8-.8 1.33-.2.5-.3 1.06-.3 1.66 0 .6.1 1.18.3 1.7.18.5.44.95.77 1.33.35.36.75.64 1.22.85.47.2 1 .3 1.54.3.65 0 1.22-.12 1.7-.38s.87-.6 1.16-1l2.26 2.16z"/>
    <path id="h" d="M57.68 14.05l-5-6.3h-.04v6.3h-3.2V.38h3.2v5.57h.06L57.5.37h4.08l-5.8 6.3 6.14 7.38h-4.24z"/>
    <path id="i" d="M72.55 3.92c-.28-.36-.64-.64-1.1-.85-.44-.22-.88-.32-1.3-.32-.2 0-.43 0-.66.05-.22.04-.42.12-.6.24-.18.1-.33.24-.46.42-.1.17-.17.4-.17.66 0 .23.05.42.14.58.1.15.25.3.42.4.2.12.42.23.67.33.24.1.53.2.85.3l1.42.5c.5.2.95.44 1.35.75.4.3.74.7 1 1.16.28.45.4 1.02.4 1.7 0 .8-.14 1.47-.43 2.05-.3.56-.67 1.03-1.15 1.4-.48.37-1.03.65-1.65.83-.62.18-1.26.27-1.92.27-.97 0-1.9-.16-2.8-.5-.9-.35-1.65-.84-2.24-1.47l2.13-2.2c.33.4.76.76 1.3 1.04.54.27 1.07.4 1.6.4.25 0 .48-.02.7-.07.24-.05.43-.14.6-.25.18-.12.32-.27.42-.47.1-.2.14-.42.14-.7 0-.25-.06-.47-.2-.65-.12-.18-.3-.34-.54-.48-.23-.16-.52-.3-.88-.4-.34-.14-.73-.27-1.18-.4-.43-.16-.85-.32-1.27-.52-.4-.2-.77-.44-1.1-.73-.32-.3-.58-.68-.78-1.1-.2-.44-.3-.97-.3-1.6 0-.75.15-1.4.46-1.94.3-.54.7-1 1.2-1.34.5-.34 1.05-.6 1.67-.75.62-.17 1.25-.25 1.88-.25.77 0 1.55.14 2.33.42.8.3 1.5.7 2.1 1.26l-2.08 2.22z"/>
    <path id="j" d="M12.17 40V10.63L4.84 16.4 0 9.65 12.95 0h8.56v40h-9.33z"/>
    <path id="k" d="M23.52 0L1.76.67 0 1.9l17.24.24-9.72 1.93-.37 2.2 7.64.4 2.1-.46-8-1.08L23.52 2.6V0z"/>
  </defs>
</svg>
