<svg xmlns="http://www.w3.org/2000/svg" width="115" height="53" xmlns:xlink="http://www.w3.org/1999/xlink">
  <title>
    Just One Rocks Logo
  </title>
  <g transform="translate(885 -874)">
    <clipPath id="a" clip-rule="evenodd">
      <path fill="#FFF" d="M-885 874h115v53h-115v-53z"/>
    </clipPath>
    <g clip-path="url(#a)">
      <g fill="#5B5955" transform="translate(-864.724 876.97)">
        <use xlink:href="#b"/>
        <use xlink:href="#c"/>
        <use xlink:href="#d"/>
        <use xlink:href="#e"/>
      </g>
      <g fill="#FEA600" transform="translate(-885 899.93)">
        <use xlink:href="#f"/>
        <use xlink:href="#g"/>
        <use xlink:href="#h"/>
        <use xlink:href="#i"/>
        <use xlink:href="#j"/>
        <use xlink:href="#k"/>
      </g>
      <use fill="#FEA600" xlink:href="#l" transform="translate(-800.072 874)"/>
      <use fill="#FEA600" xlink:href="#m" transform="rotate(-5.02 10066.67 9500.706) skewX(-.042)"/>
    </g>
  </g>
  <defs>
    <path id="b" d="M4.897 16.24c-1.147 0-2.118-.224-2.914-.672C1.186 15.105.526 14.4 0 13.458L2.22 11.8c.575 1.056 1.33 1.583 2.27 1.583.685 0 1.195-.216 1.53-.647.334-.432.5-1.16.5-2.183V.288h3.273v10.555c0 1.583-.414 2.878-1.242 3.886-.82 1-2.04 1.51-3.65 1.51z"/>
    <path id="c" d="M22.857 16.24c-1.99 0-3.51-.6-4.562-1.8-1.035-1.2-1.553-3.07-1.553-5.612V.288h3.273v8.85c0 1.52.238 2.608.716 3.264.48.655 1.19.983 2.13.983.96 0 1.68-.328 2.18-.983.5-.656.74-1.743.74-3.263V.28h3.16v8.54c0 2.542-.51 4.413-1.55 5.613-1.02 1.2-2.52 1.8-4.51 1.8z"/>
    <path id="d" d="M40.422 16.24c-1.05 0-2.078-.192-3.08-.576-1.004-.4-1.888-.967-2.652-1.703l1.887-2.25c.573.51 1.202.92 1.887 1.23.7.31 1.377.46 2.03.46.764 0 1.346-.14 1.744-.43.414-.3.62-.72.62-1.25 0-.33-.095-.61-.286-.84-.175-.22-.406-.4-.693-.55-.27-.14-.72-.34-1.34-.6l-2.06-.88c-.93-.38-1.68-.92-2.27-1.61-.59-.7-.89-1.58-.89-2.63 0-.85.23-1.61.69-2.3.47-.7 1.13-1.25 1.96-1.65.83-.42 1.76-.63 2.79-.63.9 0 1.8.19 2.67.56.87.35 1.63.85 2.27 1.49l-1.65 2.08c-.54-.43-1.08-.75-1.6-.96-.53-.2-1.09-.31-1.7-.31-.65 0-1.17.14-1.55.41-.38.27-.58.65-.58 1.13 0 .34.1.62.29.84.21.22.45.41.74.55.3.15.76.35 1.38.6l2.01.82c1 .42 1.77.97 2.31 1.66.54.67.81 1.54.81 2.59 0 .88-.23 1.69-.7 2.43-.47.72-1.13 1.3-2.01 1.73-.88.438-1.91.65-3.09.65z"/>
    <path id="e" d="M54.855 3.046h-4.347V.288h11.99v2.758h-4.37v12.906h-3.273V3.046z"/>
    <path id="f" d="M11.77 23.576l-4.752-8.763h-1.8v8.763H0V1.496h8.384c1.056 0 2.08.115 3.074.344 1.015.208 1.915.572 2.702 1.09.807.52 1.45 1.207 1.925 2.06.476.852.714 1.912.714 3.18 0 1.497-.41 2.755-1.22 3.774-.81 1.018-1.93 1.746-3.36 2.183l5.74 9.45-6.21-.002zm-.22-15.312c0-.52-.114-.936-.342-1.247-.207-.333-.487-.583-.84-.75-.33-.186-.713-.31-1.147-.373-.41-.062-.81-.094-1.21-.094H5.19v5.146H7.7c.436 0 .88-.03 1.336-.094.456-.083.87-.218 1.242-.405.373-.187.673-.458.9-.81.25-.354.373-.812.373-1.373z"/>
    <path id="g" d="M34.79 15.748c0 1.268-.228 2.422-.683 3.462-.456 1.018-1.076 1.892-1.863 2.62-.787.706-1.698 1.257-2.733 1.652-1.03.395-2.14.593-3.32.593-1.16 0-2.26-.198-3.32-.593-1.03-.395-1.94-.946-2.73-1.653-.76-.73-1.37-1.61-1.83-2.62-.45-1.04-.68-2.2-.68-3.47s.23-2.41.69-3.43c.46-1.02 1.07-1.88 1.84-2.59.79-.71 1.7-1.25 2.74-1.63 1.06-.38 2.16-.56 3.32-.56 1.18 0 2.29.18 3.32.56 1.04.37 1.95.91 2.74 1.62.79.7 1.41 1.57 1.87 2.58.45 1.02.68 2.16.68 3.43zm-4.906 0c0-.5-.083-.987-.25-1.465-.164-.48-.402-.894-.713-1.248-.31-.374-.69-.675-1.14-.904-.45-.22-.98-.34-1.58-.34s-1.13.12-1.58.35c-.45.23-.84.53-1.15.91-.29.36-.51.77-.68 1.25-.14.48-.21.97-.21 1.47s.07.99.22 1.47c.17.48.41.92.72 1.31.31.37.7.68 1.15.9.46.23.98.35 1.58.35.6 0 1.13-.11 1.59-.34.46-.23.84-.53 1.15-.9.31-.39.54-.83.69-1.31.17-.48.25-.96.25-1.46z"/>
    <path id="h" d="M47.113 13.066c-.29-.374-.683-.675-1.18-.904-.497-.23-1.004-.343-1.522-.343-.53 0-1.02.11-1.45.34-.43.21-.81.5-1.12.87-.31.35-.56.77-.74 1.25-.16.48-.25.98-.25 1.53 0 .54.09 1.05.25 1.53.17.47.41.9.72 1.27.33.35.72.63 1.15.84.46.2.96.31 1.52.31.52 0 1.03-.1 1.52-.28.52-.21.93-.5 1.24-.88l2.83 3.46c-.64.62-1.47 1.11-2.48 1.46-1.01.35-2.09.53-3.23.53-1.22 0-2.36-.19-3.42-.56-1.05-.38-1.97-.92-2.76-1.63-.76-.73-1.38-1.6-1.83-2.62-.43-1.02-.65-2.17-.65-3.46 0-1.27.22-2.41.65-3.43.46-1.02 1.07-1.88 1.83-2.59.79-.73 1.71-1.28 2.76-1.66 1.06-.4 2.19-.59 3.39-.59.56 0 1.11.05 1.65.15.56.1 1.09.25 1.59.43.52.16.99.38 1.4.65.44.25.81.53 1.12.84l-2.95 3.43z"/>
    <path id="i" d="M67.14 23.576h-6.304l-5.062-7.454h-.093v7.454h-5.12V0h5.13v14.345h.1l4.94-6.3h6.18l-5.96 7.017 6.21 8.514z"/>
    <path id="j" d="M76.358 12.63c-.414-.395-.9-.728-1.46-.998-.558-.27-1.148-.406-1.77-.406-.476 0-.92.094-1.335.28-.393.188-.59.51-.59.968 0 .436.218.748.652.935.456.18 1.18.39 2.174.62.58.12 1.15.3 1.73.53.6.23 1.14.53 1.61.9.47.37.86.83 1.15 1.37.29.54.43 1.18.43 1.93 0 .97-.2 1.81-.59 2.49-.4.66-.91 1.2-1.55 1.62-.62.41-1.33.71-2.12.9-.79.18-1.57.28-2.36.28-1.26 0-2.51-.2-3.73-.6-1.2-.42-2.21-1.02-3.02-1.81l2.86-3.03c.46.5 1.01.91 1.68 1.25.66.33 1.36.5 2.11.5.41 0 .82-.1 1.21-.29.41-.21.62-.56.62-1.06 0-.48-.25-.83-.75-1.06-.5-.23-1.28-.47-2.33-.72-.54-.13-1.08-.29-1.62-.5-.54-.21-1.03-.49-1.46-.84-.42-.36-.76-.79-1.03-1.31s-.41-1.15-.41-1.87c0-.94.2-1.73.59-2.38.39-.67.9-1.21 1.52-1.62.62-.42 1.3-.72 2.05-.91.76-.21 1.52-.31 2.26-.31 1.16 0 2.28.18 3.38.56 1.12.35 2.06.89 2.824 1.62l-2.79 2.9z"/>
    <path id="k" d="M81.285 16.185V1.497h5.217v14.688h-5.217zm5.652 4.74c0 .416-.083.81-.25 1.185-.144.353-.36.665-.65.935-.27.25-.59.447-.963.593-.373.166-.766.25-1.18.25-.414 0-.808-.073-1.18-.22-.352-.144-.663-.352-.932-.623-.27-.27-.486-.582-.652-.935-.166-.354-.248-.738-.248-1.154 0-.395.072-.77.217-1.123.16-.374.38-.696.65-.966s.59-.48.96-.624c.37-.166.76-.25 1.18-.25.41 0 .8.084 1.18.25.37.146.69.353.96.624.29.25.5.56.65.935.16.354.25.728.25 1.123z"/>
    <path id="l" d="M12.293 39.91V10.6l-7.41 5.75L0 9.64 13.08 0h8.644v39.91h-9.43z"/>
    <path id="m" d="M22.162 0L1.692.88 0 3.012l16.21.285-9.134 2.395-.35 2.735 7.142 1.07 3.35-.997L8.373 7 20.3 4.265 22.162 0z"/>
  </defs>
</svg>
